<?xml version="1.0" encoding="utf-8"?>
<!-- Generator: Adobe Illustrator 18.1.1, SVG Export Plug-In . SVG Version: 6.00 Build 0)  -->
<svg version="1.1" id="Layer_1" xmlns="http://www.w3.org/2000/svg" xmlns:xlink="http://www.w3.org/1999/xlink" x="0px" y="0px"
	 width="100px" height="100px" viewBox="0 0 100 100" enable-background="new 0 0 100 100" xml:space="preserve">
<g>
	<g>
		<polygon fill="#00B4A0" points="52.278,33.094 47.482,33.094 47.482,47.482 33.094,47.482 33.094,52.278 47.482,52.278 
			47.482,66.667 52.278,66.667 52.278,52.278 66.667,52.278 66.667,47.482 52.278,47.482 		"/>
		<path fill="#00B4A0" d="M49.88,16.307c-18.465,0-33.573,15.108-33.573,33.573S31.415,83.453,49.88,83.453
			S83.453,68.345,83.453,49.88S68.585,16.307,49.88,16.307z M49.88,78.657c-15.827,0-28.777-12.95-28.777-28.777
			s12.95-28.777,28.777-28.777s28.777,12.95,28.777,28.777S65.947,78.657,49.88,78.657z"/>
	</g>
</g>
</svg>
