<?xml version="1.0" encoding="utf-8"?>
<!-- Generator: Adobe Illustrator 18.1.1, SVG Export Plug-In . SVG Version: 6.00 Build 0)  -->
<svg version="1.1" id="Layer_1" xmlns="http://www.w3.org/2000/svg" xmlns:xlink="http://www.w3.org/1999/xlink" x="0px" y="0px"
	 viewBox="0 180 612 612" enable-background="new 0 180 612 612" xml:space="preserve">
<path fill="#FFFFFF" d="M373.4,311.4c-30.6,0-61.2,15.3-76.5,30.6c-15.3-15.3-45.9-30.6-76.5-30.6H98v367.2h122.4
	c30.6,0,61.2,15.3,76.5,30.6c15.3-15.3,45.9-30.6,76.5-30.6h122.4V311.4H373.4z M296.9,670.9c-19.9-12.2-47.4-22.9-76.5-22.9h-91.8
	V342h91.8c21.4,0,44.4,10.7,55.1,21.4l21.4,21.4V670.9z M449.9,571.5H342.8v-15.3h107.1V571.5z M449.9,525.6H342.8v-15.3h107.1
	V525.6z M449.9,479.7H342.8v-15.3h107.1V479.7z M449.9,433.8H342.8v-15.3h107.1V433.8z"/>
</svg>
