<?xml version="1.0" encoding="utf-8"?>
<!-- Generator: Adobe Illustrator 18.1.1, SVG Export Plug-In . SVG Version: 6.00 Build 0)  -->
<svg version="1.1" id="Layer_1" xmlns="http://www.w3.org/2000/svg" xmlns:xlink="http://www.w3.org/1999/xlink" x="0px" y="0px"
	 width="100px" height="100px" viewBox="0 0 100 100" enable-background="new 0 0 100 100" xml:space="preserve">
<g>
	<path fill="#00B4A0" d="M92.113,7.606v76.901H69.014c-7.042,0-14.085,2.535-19.155,5.634c-5.07-3.099-12.113-5.634-19.155-5.634
		H7.606V7.606h23.099c5.352,0,10.986,2.817,13.803,5.352l5.352,5.352l5.352-5.352c2.535-2.535,8.451-5.352,13.803-5.352
		L92.113,7.606 M100,0H69.296C61.69,0,53.803,3.944,50.141,7.606C46.197,3.944,38.31,0,30.704,0H0v92.113h30.704
		c7.606,0,15.493,3.944,19.155,7.606c3.944-3.944,11.549-7.606,19.155-7.606h30.704V0H100z"/>
	<path fill="#00B4A0" d="M49.859,100c3.944-3.944,11.549-7.606,19.155-7.606h30.704V0H69.296C61.69,0,53.803,3.944,50.141,7.606"/>
	<rect x="11.549" y="30.704" fill="#00B4A0" width="30.704" height="3.944"/>
	<rect x="11.549" y="38.31" fill="#00B4A0" width="30.704" height="3.944"/>
	<rect x="11.549" y="46.197" fill="#00B4A0" width="30.704" height="3.944"/>
	<rect x="11.549" y="53.803" fill="#00B4A0" width="15.493" height="3.944"/>
</g>
</svg>
