<?xml version="1.0" encoding="utf-8"?>
<!-- Generator: Adobe Illustrator 18.1.1, SVG Export Plug-In . SVG Version: 6.00 Build 0)  -->
<svg version="1.1" id="Layer_1" xmlns="http://www.w3.org/2000/svg" xmlns:xlink="http://www.w3.org/1999/xlink" x="0px" y="0px"
	 width="100px" height="100px" viewBox="0 0 100 100" enable-background="new 0 0 100 100" xml:space="preserve">
<g>
	<path fill="#00B4A0" d="M50.122,6.601c8.802,0,17.359,3.423,23.472,9.78c6.357,6.357,9.78,14.67,9.78,23.472
		c0,9.535-3.423,18.582-10.024,25.428L56.724,83.13v-3.178V73.35h-6.601c-8.802,0-17.359-3.423-23.472-9.78
		c-6.357-6.357-9.78-14.67-9.78-23.472s3.423-17.359,9.78-23.472C32.763,10.024,41.076,6.601,50.122,6.601 M50.122,0
		C39.12,0,29.095,4.401,21.76,11.736S10.024,29.095,10.024,40.098s4.401,21.027,11.736,28.117
		c7.335,7.335,17.359,11.736,28.362,11.736V100l28.362-30.073c7.335-7.579,11.736-18.337,11.736-30.073
		c0-11.002-4.401-21.027-11.736-28.362C71.149,4.401,61.125,0,50.122,0L50.122,0z"/>
	<circle fill="#00B4A0" cx="50.122" cy="40.098" r="4.89"/>
	<circle fill="#00B4A0" cx="66.748" cy="40.098" r="4.89"/>
	<circle fill="#00B4A0" cx="33.252" cy="40.098" r="4.89"/>
</g>
</svg>
