<?xml version="1.0" encoding="utf-8"?>
<!-- Generator: Adobe Illustrator 18.1.1, SVG Export Plug-In . SVG Version: 6.00 Build 0)  -->
<svg version="1.1" id="Layer_1" xmlns="http://www.w3.org/2000/svg" xmlns:xlink="http://www.w3.org/1999/xlink" x="0px" y="0px"
	 width="100px" height="100px" viewBox="0 0 100 100" enable-background="new 0 0 100 100" xml:space="preserve">
<g>
	<rect x="33.252" y="20.049" fill="#00B4A0" width="66.748" height="6.601"/>
	<rect y="20.049" fill="#00B4A0" width="16.626" height="6.601"/>
	<rect x="83.374" y="46.699" fill="#00B4A0" width="16.626" height="6.601"/>
	<rect y="46.699" fill="#00B4A0" width="63.325" height="6.601"/>
	<rect y="73.35" fill="#00B4A0" width="16.626" height="6.601"/>
	<rect x="36.675" y="73.35" fill="#00B4A0" width="63.325" height="6.601"/>
	<path fill="#00B4A0" d="M26.65,10.024c-7.335,0-13.447,5.868-13.447,13.447c0,7.335,5.868,13.447,13.447,13.447
		s13.447-5.868,13.447-13.447S33.985,10.024,26.65,10.024z M26.65,30.073c-3.667,0-6.601-2.934-6.601-6.601s2.934-6.601,6.601-6.601
		s6.601,2.934,6.601,6.601C33.252,27.139,30.318,30.073,26.65,30.073z"/>
	<path fill="#00B4A0" d="M26.65,63.325c-7.335,0-13.447,5.868-13.447,13.447c0,7.335,5.868,13.447,13.447,13.447
		s13.447-5.868,13.447-13.447C40.098,69.438,33.985,63.325,26.65,63.325z M26.65,83.374c-3.667,0-6.601-2.934-6.601-6.601
		s2.934-6.601,6.601-6.601s6.601,2.934,6.601,6.601C33.252,80.44,30.318,83.374,26.65,83.374z"/>
	<path fill="#00B4A0" d="M73.35,36.675c-7.335,0-13.447,5.868-13.447,13.447c0,7.335,5.868,13.447,13.447,13.447
		s13.447-5.868,13.447-13.447C86.797,42.787,80.685,36.675,73.35,36.675z M73.35,56.724c-3.667,0-6.601-2.934-6.601-6.601
		c0-3.667,2.934-6.601,6.601-6.601s6.601,2.934,6.601,6.601C79.951,53.79,77.017,56.724,73.35,56.724z"/>
</g>
</svg>
