<?xml version="1.0" encoding="utf-8"?>
<!-- Generator: Adobe Illustrator 18.1.1, SVG Export Plug-In . SVG Version: 6.00 Build 0)  -->
<svg version="1.1" id="Layer_1" xmlns="http://www.w3.org/2000/svg" xmlns:xlink="http://www.w3.org/1999/xlink" x="0px" y="0px"
	 viewBox="0 0 29.8 29.8" enable-background="new 0 0 29.8 29.8" xml:space="preserve">
<g>
	<g>
		<path fill="#FFFFFF" d="M26.4,14.9c0-0.6-0.1-1.2-0.2-1.8l3.6-3.2l-3.1-5.1l-4.3,1.4c-1-0.9-2.2-1.6-3.6-2.1l-1-4.2h-6l-1,4.2
			C9.7,4.7,8.5,5.4,7.4,6.3L3.1,4.9L0,9.9l3.6,3.2c-0.1,0.6-0.2,1.2-0.2,1.8s0.1,1.2,0.2,1.8L0,19.9L3.1,25l4.3-1.4
			c1,0.9,2.2,1.6,3.6,2.1l1,4.2h6l1-4.2c1.3-0.5,2.5-1.2,3.6-2.1l4.3,1.4l3.1-5.1l-3.6-3.2C26.3,16.1,26.4,15.5,26.4,14.9z M14.9,19
			c-2.2,0-4.1-1.8-4.1-4.1s1.8-4.1,4.1-4.1s4.1,1.8,4.1,4.1S17.2,19,14.9,19z"/>
	</g>
</g>
</svg>
