<?xml version="1.0" encoding="utf-8"?>
<!-- Generator: Adobe Illustrator 18.1.1, SVG Export Plug-In . SVG Version: 6.00 Build 0)  -->
<svg version="1.1" id="Layer_1" xmlns="http://www.w3.org/2000/svg" xmlns:xlink="http://www.w3.org/1999/xlink" x="0px" y="0px"
	 viewBox="0 0 40 40" enable-background="new 0 0 40 40" xml:space="preserve">
<g>
	<path fill="#FFFFFF" d="M20,7c4.4,0,8,3.6,8,8s-3.6,8-8,8s-8-3.6-8-8S15.6,7,20,7 M20,5c-5.5,0-10,4.5-10,10s4.5,10,10,10
		s10-4.5,10-10S25.5,5,20,5L20,5z"/>
	<path fill="#FFFFFF" d="M28,27H12c-2.2,0-4,1.8-4,4v4h24v-4C32,28.8,30.2,27,28,27z"/>
</g>
</svg>
