<?xml version="1.0" encoding="utf-8"?>
<!-- Generator: Adobe Illustrator 18.1.1, SVG Export Plug-In . SVG Version: 6.00 Build 0)  -->
<svg version="1.1" id="Layer_1" xmlns="http://www.w3.org/2000/svg" xmlns:xlink="http://www.w3.org/1999/xlink" x="0px" y="0px"
	 width="100px" height="100px" viewBox="0 0 100 100" enable-background="new 0 0 100 100" xml:space="preserve">
<g>
	<path fill="#00B4A0" d="M92.113,7.606v73.803L81.127,92.394H7.606V7.887h84.507 M100,0H0v100h84.507L100,84.507V0L100,0z"/>
	<g>
		<path fill="#00B4A0" d="M49.859,26.761c-12.676,0-23.099,10.423-23.099,23.099s10.423,23.099,23.099,23.099
			s23.099-10.423,23.099-23.099S62.817,26.761,49.859,26.761z M49.859,57.746c-4.225,0-7.606-3.38-7.606-7.606
			s3.38-7.606,7.606-7.606s7.606,3.38,7.606,7.606S54.085,57.746,49.859,57.746z"/>
	</g>
</g>
</svg>
