<?xml version="1.0" encoding="utf-8"?>
<!-- Generator: Adobe Illustrator 18.1.1, SVG Export Plug-In . SVG Version: 6.00 Build 0)  -->
<svg version="1.1" id="Layer_1" xmlns="http://www.w3.org/2000/svg" xmlns:xlink="http://www.w3.org/1999/xlink" x="0px" y="0px"
	 width="100px" height="100px" viewBox="0 0 100 100" enable-background="new 0 0 100 100" xml:space="preserve">
<g>
	<path fill="#00B4A0" d="M36.486,9.91c14.865,0,27.027,12.162,27.027,27.027S51.351,63.964,36.486,63.964S9.459,51.802,9.459,36.937
		S21.622,9.91,36.486,9.91 M36.486,0.901c-19.82,0-36.036,16.216-36.036,36.036s16.216,36.036,36.036,36.036
		s36.036-16.216,36.036-36.036S56.306,0.901,36.486,0.901L36.486,0.901z"/>
	
		<rect x="72.27" y="66.134" transform="matrix(-0.7071 0.7071 -0.7071 -0.7071 197.5921 82.404)" fill="#00B4A0" width="18.919" height="31.982"/>
	<path fill="#00B4A0" d="M36.486,9.91c14.865,0,27.027,12.162,27.027,27.027S51.351,63.964,36.486,63.964S9.459,51.802,9.459,36.937
		S21.622,9.91,36.486,9.91 M36.486,0.901c-19.82,0-36.036,16.216-36.036,36.036s16.216,36.036,36.036,36.036
		s36.036-16.216,36.036-36.036S56.306,0.901,36.486,0.901L36.486,0.901z"/>
	
		<rect x="72.27" y="66.134" transform="matrix(-0.7071 0.7071 -0.7071 -0.7071 197.5921 82.404)" fill="#00B4A0" width="18.919" height="31.982"/>
</g>
</svg>
