<?xml version="1.0" encoding="utf-8"?>
<!-- Generator: Adobe Illustrator 18.1.1, SVG Export Plug-In . SVG Version: 6.00 Build 0)  -->
<svg version="1.1" id="Layer_1" xmlns="http://www.w3.org/2000/svg" xmlns:xlink="http://www.w3.org/1999/xlink" x="0px" y="0px"
	 width="54.863px" height="54.364px" viewBox="22.693 22.569 54.863 54.364" enable-background="new 22.693 22.569 54.863 54.364"
	 xml:space="preserve">
<g>
	<g>
		<path fill="#FFFFFF" d="M71.072,50c0-1.247,0-2.244-0.249-3.242l6.733-5.736l-5.736-9.227l-7.98,2.494
			c-1.995-1.746-3.99-2.993-6.484-3.741l-1.746-7.98H44.638l-1.746,7.731c-2.494,0.998-4.738,2.244-6.484,3.741l-7.98-2.494
			l-5.736,9.227l6.733,5.736c-0.249,0.998-0.249,2.244-0.249,3.242s0,2.244,0.249,3.242l-6.733,5.736l5.736,9.227l7.98-2.494
			c1.995,1.746,3.99,2.993,6.484,3.741l1.746,7.731h10.973l1.746-7.731c2.494-0.998,4.738-2.244,6.484-3.741l7.98,2.494l5.736-9.227
			l-6.733-5.736C71.072,52.244,71.072,51.247,71.072,50z M50.125,57.481c-4.239,0-7.481-3.242-7.481-7.481s3.242-7.481,7.481-7.481
			s7.481,3.242,7.481,7.481S54.115,57.481,50.125,57.481z"/>
	</g>
</g>
</svg>
