<?xml version="1.0" encoding="utf-8"?>
<!-- Generator: Adobe Illustrator 18.1.1, SVG Export Plug-In . SVG Version: 6.00 Build 0)  -->
<svg version="1.1" id="Layer_1" xmlns="http://www.w3.org/2000/svg" xmlns:xlink="http://www.w3.org/1999/xlink" x="0px" y="0px"
	 viewBox="0 0 17.3 20" enable-background="new 0 0 17.3 20" xml:space="preserve">
<path fill="#AFAFAF" d="M14,5.3c1.5,0,2.7-1.2,2.7-2.7S15.5,0,14,0s-2.7,1.2-2.7,2.7S12.5,5.3,14,5.3z M14,1.3
	c0.7,0,1.3,0.6,1.3,1.3C15.3,3.4,14.7,4,14,4s-1.3-0.6-1.3-1.3C12.7,1.9,13.3,1.3,14,1.3z"/>
<path fill="#AFAFAF" d="M16,6.7h-4L8.7,10L5.3,6.7h-4C0.6,6.7,0,7.3,0,8v5.3l1.3,1.3v4.7C1.3,19.7,1.6,20,2,20h2.7
	c0.4,0,0.7-0.3,0.7-0.7V10l3.3,3.3L12,10v9.3c0,0.4,0.3,0.7,0.7,0.7h2.7c0.4,0,0.7-0.3,0.7-0.7v-4.7l1.3-1.3V8
	C17.3,7.3,16.7,6.7,16,6.7z"/>
<path fill="#AFAFAF" d="M3.3,5.3C4.8,5.3,6,4.1,6,2.7S4.8,0,3.3,0S0.7,1.2,0.7,2.7S1.9,5.3,3.3,5.3z M3.3,1.3c0.7,0,1.3,0.6,1.3,1.3
	C4.7,3.4,4.1,4,3.3,4S2,3.4,2,2.7C2,1.9,2.6,1.3,3.3,1.3z"/>
</svg>
