<?xml version="1.0" encoding="utf-8"?>
<!-- Generator: Adobe Illustrator 18.1.1, SVG Export Plug-In . SVG Version: 6.00 Build 0)  -->
<svg version="1.1" id="Layer_1" xmlns="http://www.w3.org/2000/svg" xmlns:xlink="http://www.w3.org/1999/xlink" x="0px" y="0px"
	 viewBox="0 0 36.3 36.3" enable-background="new 0 0 36.3 36.3" xml:space="preserve">
<g>
	<g>
		<polygon fill="#B6B5B5" points="15.2,362.2 15.2,360.2 7.2,360.2 7.2,362.2 7.2,364.2 7.2,376.2 29.2,376.2 29.2,364.2 
			29.2,362.2 		"/>
	</g>
	<g>
		<polygon fill="#B6B5B5" points="15.2,312.2 15.2,310.2 7.2,310.2 7.2,312.2 7.2,314.2 7.2,326.2 29.2,326.2 29.2,314.2 
			29.2,312.2 		"/>
	</g>
	<g>
		<polygon fill="#B6B5B5" points="15.2,262.2 15.2,260.2 7.2,260.2 7.2,262.2 7.2,264.2 7.2,276.2 29.2,276.2 29.2,264.2 
			29.2,262.2 		"/>
	</g>
	<g>
		<polygon fill="#B6B5B5" points="15.2,212.2 15.2,210.2 7.2,210.2 7.2,212.2 7.2,214.2 7.2,226.2 29.2,226.2 29.2,214.2 
			29.2,212.2 		"/>
	</g>
	<g>
		<polygon fill="#B6B5B5" points="15.2,162.2 15.2,160.2 7.2,160.2 7.2,162.2 7.2,164.2 7.2,176.2 29.2,176.2 29.2,164.2 
			29.2,162.2 		"/>
	</g>
	<g>
		<polygon fill="#B6B5B5" points="15.2,112.2 15.2,110.2 7.2,110.2 7.2,112.2 7.2,114.2 7.2,126.2 29.2,126.2 29.2,114.2 
			29.2,112.2 		"/>
	</g>
	<g>
		<polygon fill="#B6B5B5" points="15.2,62.2 15.2,60.2 7.2,60.2 7.2,62.2 7.2,64.2 7.2,76.2 29.2,76.2 29.2,64.2 29.2,62.2 		"/>
	</g>
	<g>
		<polygon fill="#B6B5B5" points="15.2,12.2 15.2,10.2 7.2,10.2 7.2,12.2 7.2,14.2 7.2,26.2 29.2,26.2 29.2,14.2 29.2,12.2 		"/>
	</g>
</g>
</svg>
