<?xml version="1.0" encoding="utf-8"?>
<!-- Generator: Adobe Illustrator 18.1.1, SVG Export Plug-In . SVG Version: 6.00 Build 0)  -->
<svg version="1.1" id="Layer_1" xmlns="http://www.w3.org/2000/svg" xmlns:xlink="http://www.w3.org/1999/xlink" x="0px" y="0px"
	 width="100px" height="100px" viewBox="0 0 100 100" enable-background="new 0 0 100 100" xml:space="preserve">
<g>
	<path fill="#00B4A0" d="M50.122,6.601c14.67,0,26.65,11.98,26.65,26.65s-11.98,26.65-26.65,26.65s-26.65-11.736-26.65-26.65
		S35.452,6.601,50.122,6.601 M50.122,0C31.54,0,16.626,14.914,16.626,33.252S31.54,66.504,49.878,66.504s33.496-14.67,33.496-33.252
		S68.46,0,50.122,0L50.122,0z"/>
	<path fill="#00B4A0" d="M76.773,73.35H23.472c-7.335,0-13.447,5.868-13.447,13.447v13.447h79.951V86.797
		C89.976,79.462,84.108,73.35,76.773,73.35z"/>
</g>
</svg>
